<?xml version="1.0" encoding="UTF-8"?>
<svg xmlns="http://www.w3.org/2000/svg" xmlns:xlink="http://www.w3.org/1999/xlink" width="30pt" height="30pt" viewBox="0 0 30 30" version="1.1">
<g id="surface1">
<path style=" stroke:none;fill-rule:nonzero;fill:#160720;fill-opacity:1;" d="M 14.800781 2.960938 C 8.261719 2.960938 2.960938 8.261719 2.960938 14.800781 C 2.960938 21.34375 8.261719 26.644531 14.800781 26.644531 C 21.34375 26.644531 26.644531 21.34375 26.644531 14.800781 C 26.644531 8.261719 21.34375 2.960938 14.800781 2.960938 Z M 19.738281 15.789063 L 15.789063 15.789063 L 15.789063 19.738281 C 15.789063 20.285156 15.347656 20.722656 14.800781 20.722656 C 14.257813 20.722656 13.816406 20.285156 13.816406 19.738281 L 13.816406 15.789063 L 9.867188 15.789063 C 9.324219 15.789063 8.882813 15.351563 8.882813 14.800781 C 8.882813 14.253906 9.324219 13.816406 9.867188 13.816406 L 13.816406 13.816406 L 13.816406 9.867188 C 13.816406 9.320313 14.257813 8.882813 14.800781 8.882813 C 15.347656 8.882813 15.789063 9.320313 15.789063 9.867188 L 15.789063 13.816406 L 19.738281 13.816406 C 20.28125 13.816406 20.722656 14.253906 20.722656 14.800781 C 20.722656 15.351563 20.28125 15.789063 19.738281 15.789063 Z "/>
</g>
</svg>
