<?xml version="1.0" encoding="UTF-8"?>
<svg xmlns="http://www.w3.org/2000/svg" xmlns:xlink="http://www.w3.org/1999/xlink" width="24pt" height="24pt" viewBox="0 0 24 24" version="1.1">
<g id="surface1">
<path style=" stroke:none;fill-rule:nonzero;fill:#160720;fill-opacity:1;" d="M 18 2 L 14 6 L 17 6 L 17 12 C 17 12.566406 16.566406 13 16 13 L 9 13 L 9 15 L 16 15 C 17.644531 15 19 13.644531 19 12 L 19 6 L 22 6 Z M 8 9 C 6.355469 9 5 10.355469 5 12 L 5 18 L 2 18 L 6 22 L 10 18 L 7 18 L 7 12 C 7 11.433594 7.433594 11 8 11 L 15 11 L 15 9 Z "/>
</g>
</svg>
