<?xml version="1.0" encoding="UTF-8"?>
<svg xmlns="http://www.w3.org/2000/svg" xmlns:xlink="http://www.w3.org/1999/xlink" width="30pt" height="30pt" viewBox="0 0 30 30" version="1.1">
<g id="surface1">
<path style=" stroke:none;fill-rule:nonzero;fill:#160720;fill-opacity:1;" d="M 6.90625 3.949219 C 6.652344 3.949219 6.402344 4.042969 6.210938 4.238281 L 4.238281 6.210938 C 3.851563 6.59375 3.851563 7.21875 4.238281 7.605469 L 11.433594 14.800781 L 4.238281 22 C 3.851563 22.386719 3.851563 23.007813 4.238281 23.394531 L 6.210938 25.367188 C 6.59375 25.753906 7.21875 25.753906 7.605469 25.367188 L 14.800781 18.171875 L 22 25.367188 C 22.386719 25.753906 23.007813 25.753906 23.394531 25.367188 L 25.367188 23.394531 C 25.753906 23.007813 25.753906 22.386719 25.367188 22 L 18.171875 14.800781 L 25.367188 7.605469 C 25.753906 7.21875 25.753906 6.59375 25.367188 6.210938 L 23.394531 4.238281 C 23.007813 3.851563 22.386719 3.851563 22 4.238281 L 14.800781 11.433594 L 7.605469 4.238281 C 7.414063 4.042969 7.164063 3.949219 6.90625 3.949219 Z "/>
</g>
</svg>
