<?xml version="1.0" encoding="UTF-8"?>
<svg xmlns="http://www.w3.org/2000/svg" xmlns:xlink="http://www.w3.org/1999/xlink" width="50pt" height="50pt" viewBox="0 0 50 50" version="1.1">
<g id="surface1">
<path style=" stroke:none;fill-rule:nonzero;fill:#EE3E54;fill-opacity:1;" d="M 7.5 14.5 C 7.5 15.050781 7.050781 15.5 6.5 15.5 C 5.949219 15.5 5.5 15.050781 5.5 14.5 C 5.5 13.949219 5.949219 13.5 6.5 13.5 C 7.050781 13.5 7.5 13.949219 7.5 14.5 Z "/>
<path style=" stroke:none;fill-rule:nonzero;fill:#F1BC19;fill-opacity:1;" d="M 39 6.5 C 39 6.777344 38.777344 7 38.5 7 C 38.222656 7 38 6.777344 38 6.5 C 38 6.222656 38.222656 6 38.5 6 C 38.777344 6 39 6.222656 39 6.5 Z "/>
<path style=" stroke:none;fill-rule:nonzero;fill:#F9DBD2;fill-opacity:1;" d="M 43.5 25 C 43.5 35.21875 35.21875 43.5 25 43.5 C 14.78125 43.5 6.5 35.21875 6.5 25 C 6.5 14.78125 14.78125 6.5 25 6.5 C 35.21875 6.5 43.5 14.78125 43.5 25 Z "/>
<path style=" stroke:none;fill-rule:nonzero;fill:#F1BC19;fill-opacity:1;" d="M 43.5 7.5 C 43.5 8.605469 42.605469 9.5 41.5 9.5 C 40.394531 9.5 39.5 8.605469 39.5 7.5 C 39.5 6.394531 40.394531 5.5 41.5 5.5 C 42.605469 5.5 43.5 6.394531 43.5 7.5 Z "/>
<path style=" stroke:none;fill-rule:nonzero;fill:#EE3E54;fill-opacity:1;" d="M 44.5 12 C 44.5 12.550781 44.050781 13 43.5 13 C 42.949219 13 42.5 12.550781 42.5 12 C 42.5 11.449219 42.949219 11 43.5 11 C 44.050781 11 44.5 11.449219 44.5 12 Z "/>
<path style=" stroke:none;fill-rule:nonzero;fill:#FBCD59;fill-opacity:1;" d="M 41.5 38 C 41.5 38.550781 41.050781 39 40.5 39 C 39.949219 39 39.5 38.550781 39.5 38 C 39.5 37.449219 39.949219 37 40.5 37 C 41.050781 37 41.5 37.449219 41.5 38 Z "/>
<path style=" stroke:none;fill-rule:nonzero;fill:#FBCD59;fill-opacity:1;" d="M 9.5 31.5 C 9.5 32.605469 8.605469 33.5 7.5 33.5 C 6.394531 33.5 5.5 32.605469 5.5 31.5 C 5.5 30.394531 6.394531 29.5 7.5 29.5 C 8.605469 29.5 9.5 30.394531 9.5 31.5 Z "/>
<path style=" stroke:none;fill-rule:nonzero;fill:#EE3E54;fill-opacity:1;" d="M 13.5 43.5 C 13.5 44.050781 13.050781 44.5 12.5 44.5 C 11.949219 44.5 11.5 44.050781 11.5 43.5 C 11.5 42.949219 11.949219 42.5 12.5 42.5 C 13.050781 42.5 13.5 42.949219 13.5 43.5 Z "/>
<path style=" stroke:none;fill-rule:nonzero;fill:#FFFFFF;fill-opacity:1;" d="M 10.5 26.75 C 10.5 27.441406 9.941406 28 9.25 28 C 8.558594 28 8 27.441406 8 26.75 C 8 26.058594 8.558594 25.5 9.25 25.5 C 9.941406 25.5 10.5 26.058594 10.5 26.75 Z "/>
<path style=" stroke:none;fill-rule:nonzero;fill:#F1BC19;fill-opacity:1;" d="M 11 33.5 C 11 33.777344 10.777344 34 10.5 34 C 10.222656 34 10 33.777344 10 33.5 C 10 33.222656 10.222656 33 10.5 33 C 10.777344 33 11 33.222656 11 33.5 Z "/>
<path style=" stroke:none;fill-rule:nonzero;fill:#FFFFFF;fill-opacity:1;" d="M 40.5 17 C 40.5 17.277344 40.277344 17.5 40 17.5 C 39.722656 17.5 39.5 17.277344 39.5 17 C 39.5 16.722656 39.722656 16.5 40 16.5 C 40.277344 16.5 40.5 16.722656 40.5 17 Z "/>
<path style=" stroke:none;fill-rule:nonzero;fill:#FDFCEE;fill-opacity:1;" d="M 37 25 C 37 31.628906 31.628906 37 25 37 C 18.371094 37 13 31.628906 13 25 C 13 18.371094 18.371094 13 25 13 C 31.628906 13 37 18.371094 37 25 Z "/>
<path style=" stroke:none;fill-rule:nonzero;fill:#472B29;fill-opacity:1;" d="M 25 13.199219 C 31.5 13.199219 36.800781 18.5 36.800781 25 C 36.800781 31.5 31.5 36.800781 25 36.800781 C 18.5 36.800781 13.199219 31.5 13.199219 25 C 13.199219 18.5 18.5 13.199219 25 13.199219 M 25 12.5 C 18.101563 12.5 12.5 18.101563 12.5 25 C 12.5 31.898438 18.101563 37.5 25 37.5 C 31.898438 37.5 37.5 31.898438 37.5 25 C 37.5 18.101563 31.898438 12.5 25 12.5 Z "/>
<path style=" stroke:none;fill-rule:nonzero;fill:#EE3E54;fill-opacity:1;" d="M 34.800781 25 C 34.800781 30.414063 30.414063 34.800781 25 34.800781 C 19.585938 34.800781 15.199219 30.414063 15.199219 25 C 15.199219 19.585938 19.585938 15.199219 25 15.199219 C 30.414063 15.199219 34.800781 19.585938 34.800781 25 Z "/>
<path style=" stroke:none;fill-rule:nonzero;fill:#F06272;fill-opacity:1;" d="M 25 16.699219 C 30.148438 16.699219 34.398438 20.699219 34.75 25.75 C 34.75 25.5 34.800781 25.25 34.800781 25 C 34.800781 19.601563 30.398438 15.199219 25 15.199219 C 19.601563 15.199219 15.199219 19.601563 15.199219 25 C 15.199219 25.25 15.199219 25.5 15.25 25.75 C 15.601563 20.699219 19.851563 16.699219 25 16.699219 Z "/>
<path style=" stroke:none;fill-rule:nonzero;fill:#472B29;fill-opacity:1;" d="M 25 15.398438 C 30.300781 15.398438 34.648438 19.699219 34.648438 25 C 34.648438 30.300781 30.351563 34.648438 25 34.648438 C 19.699219 34.648438 15.398438 30.351563 15.398438 25 C 15.398438 19.699219 19.699219 15.398438 25 15.398438 M 25 15 C 19.5 15 15 19.5 15 25 C 15 30.5 19.5 35 25 35 C 30.5 35 35 30.5 35 25 C 35 19.5 30.5 15 25 15 Z "/>
<path style=" stroke:none;fill-rule:nonzero;fill:#FDFCEE;fill-opacity:1;" d="M 26.148438 25 L 29.101563 22.050781 C 29.25 21.898438 29.351563 21.699219 29.351563 21.5 C 29.351563 21.300781 29.25 21.101563 29.101563 20.949219 C 28.800781 20.648438 28.25 20.648438 27.949219 20.949219 L 25 23.851563 L 22.050781 20.898438 C 21.75 20.601563 21.199219 20.601563 20.898438 20.898438 C 20.601563 21.199219 20.601563 21.75 20.898438 22.050781 L 23.851563 25 L 20.898438 27.949219 C 20.601563 28.25 20.601563 28.800781 20.898438 29.101563 C 21.199219 29.398438 21.75 29.398438 22.050781 29.101563 L 25 26.148438 L 27.949219 29.101563 C 28.101563 29.25 28.300781 29.351563 28.5 29.351563 C 28.699219 29.351563 28.898438 29.25 29.050781 29.101563 C 29.351563 28.800781 29.351563 28.25 29.050781 27.949219 Z "/>
<path style=" stroke:none;fill-rule:nonzero;fill:#472B29;fill-opacity:1;" d="M 21.5 29.5 C 21.25 29.5 21 29.398438 20.800781 29.199219 C 20.398438 28.800781 20.398438 28.199219 20.800781 27.800781 L 23.601563 25 L 20.800781 22.199219 C 20.601563 22 20.5 21.75 20.5 21.5 C 20.5 21.25 20.601563 21 20.800781 20.800781 C 21.199219 20.398438 21.851563 20.398438 22.199219 20.800781 L 25 23.601563 L 27.800781 20.800781 C 28.199219 20.398438 28.800781 20.398438 29.199219 20.800781 C 29.398438 21 29.5 21.25 29.5 21.5 C 29.5 21.75 29.398438 22 29.199219 22.199219 L 26.398438 25 L 29.199219 27.800781 C 29.601563 28.199219 29.601563 28.800781 29.199219 29.199219 C 28.800781 29.601563 28.148438 29.601563 27.800781 29.199219 L 25 26.398438 L 22.199219 29.199219 C 22 29.398438 21.75 29.5 21.5 29.5 Z M 21.5 20.851563 C 21.351563 20.851563 21.199219 20.898438 21.050781 21.050781 C 20.949219 21.148438 20.851563 21.300781 20.851563 21.5 C 20.851563 21.699219 20.898438 21.800781 21.050781 21.949219 L 24.101563 25 L 21.050781 28.050781 C 20.800781 28.300781 20.800781 28.699219 21.050781 28.949219 C 21.300781 29.199219 21.699219 29.199219 21.949219 28.949219 L 25 25.898438 L 28.050781 28.949219 C 28.300781 29.199219 28.699219 29.199219 28.949219 28.949219 C 29.199219 28.699219 29.199219 28.300781 28.949219 28.050781 L 25.898438 25 L 28.949219 21.949219 C 29.050781 21.851563 29.148438 21.648438 29.148438 21.5 C 29.148438 21.351563 29.101563 21.199219 28.949219 21.050781 C 28.699219 20.800781 28.300781 20.800781 28.050781 21.050781 L 25 24.101563 L 21.949219 21.050781 C 21.800781 20.949219 21.648438 20.851563 21.5 20.851563 Z "/>
</g>
</svg>
