<?xml version="1.0" encoding="UTF-8"?>
<svg xmlns="http://www.w3.org/2000/svg" xmlns:xlink="http://www.w3.org/1999/xlink" width="64pt" height="64pt" viewBox="0 0 64 64" version="1.1">
<g id="surface1">
<path style=" stroke:none;fill-rule:nonzero;fill:#FFFFFF;fill-opacity:1;" d="M 57 32 C 57 45.808594 45.808594 57 32 57 C 18.191406 57 7 45.808594 7 32 C 7 18.191406 18.191406 7 32 7 C 45.808594 7 57 18.191406 57 32 Z "/>
<path style=" stroke:none;fill-rule:nonzero;fill:#444B54;fill-opacity:1;" d="M 32 58.5 C 17.398438 58.5 5.5 46.601563 5.5 32 C 5.5 17.398438 17.398438 5.5 32 5.5 C 46.601563 5.5 58.5 17.398438 58.5 32 C 58.5 46.601563 46.601563 58.5 32 58.5 Z M 32 8.5 C 19.050781 8.5 8.5 19.050781 8.5 32 C 8.5 44.949219 19.050781 55.5 32 55.5 C 44.949219 55.5 55.5 44.949219 55.5 32 C 55.5 19.050781 44.949219 8.5 32 8.5 Z "/>
<path style=" stroke:none;fill-rule:nonzero;fill:#444B54;fill-opacity:1;" d="M 43.25 26 L 20.75 26 C 19.898438 26 19.25 25.351563 19.25 24.5 C 19.25 23.648438 19.898438 23 20.75 23 L 43.25 23 C 44.101563 23 44.75 23.648438 44.75 24.5 C 44.75 25.351563 44.101563 26 43.25 26 Z "/>
<path style=" stroke:none;fill-rule:nonzero;fill:#444B54;fill-opacity:1;" d="M 43.25 33.5 L 20.75 33.5 C 19.898438 33.5 19.25 32.851563 19.25 32 C 19.25 31.148438 19.898438 30.5 20.75 30.5 L 43.25 30.5 C 44.101563 30.5 44.75 31.148438 44.75 32 C 44.75 32.851563 44.101563 33.5 43.25 33.5 Z "/>
<path style=" stroke:none;fill-rule:nonzero;fill:#444B54;fill-opacity:1;" d="M 43.25 41 L 20.75 41 C 19.898438 41 19.25 40.351563 19.25 39.5 C 19.25 38.648438 19.898438 38 20.75 38 L 43.25 38 C 44.101563 38 44.75 38.648438 44.75 39.5 C 44.75 40.351563 44.101563 41 43.25 41 Z "/>
</g>
</svg>
